<mxfile host="app.diagrams.net" modified="2023-06-21T17:01:06.489Z" agent="Mozilla/5.0 (Windows NT 10.0; Win64; x64) AppleWebKit/537.36 (KHTML, like Gecko) Chrome/114.0.0.0 Safari/537.36 Edg/114.0.1823.43" version="21.5.0" etag="Q_pnqLAzMgkh1RAZTm9U" type="github">
  <diagram name="PÃ¡gina-1" id="QdQi0whJIK4KETMHexko">
    <mxGraphModel>
      <root>
        <mxCell id="0" />
        <mxCell id="1" parent="0" />
      </root>
    </mxGraphModel>
  </diagram>
</mxfile>
